<?xml version="1.0" encoding="UTF-8"?>
<svg xmlns="http://www.w3.org/2000/svg" width="860" height="670" viewBox="0 0 860 670">
  <style>
    .logline, .cardline { opacity: 0; animation: fadeIn 0.4s cubic-bezier(0.22,0.61,0.36,1) forwards; }
    @keyframes fadeIn { from { opacity: 0; transform: translateX(-8px); } to { opacity: 1; transform: translateX(0); } }
    @media (prefers-reduced-motion: reduce) { .logline, .cardline { opacity: 1; animation: none; transform: none; } }
  </style>
  <rect x="0.5" y="0.5" width="859" height="669" rx="10" ry="10" fill="#0d1117" stroke="#30363d" stroke-width="1"/>
  <path d="M0.5 10 a10 10 0 0 1 10 -9.5 H849.5 a10 10 0 0 1 10 9.5 V32 H0.5 Z" fill="#161b22"/>
  <line x1="0.5" y1="32" x2="859.5" y2="32" stroke="#30363d" stroke-width="1"/>
  <circle cx="16" cy="16" r="5" fill="#ff5f56"/>
  <circle cx="33" cy="16" r="5" fill="#ffbd2e"/>
  <circle cx="50" cy="16" r="5" fill="#27c93f"/>
  <text x="430.0" y="20.5" text-anchor="middle" font-family="'Courier New', Courier, monospace" font-size="12" fill="#8b949e">ILIV007@github — profile</text>
  <text x="842" y="20.5" text-anchor="end" font-family="'Courier New', Courier, monospace" font-size="11" fill="#39d353">● live</text>
  <text x="24" y="58.0" font-family="'Courier New', Courier, monospace" font-size="14" font-weight="700"><tspan fill="#bc8cff">ILIV007@github</tspan><tspan fill="#8b949e"> ~ $ </tspan><tspan fill="#c9d1d9">tail -f activity.log</tspan><tspan fill="#e3b341"> ▮</tspan></text>
    <g class="logline" style="animation-delay:0.30s"><text x="24" y="80.0" font-family="'Courier New', Courier, monospace" font-size="13"><tspan fill="#8b949e">[just now]</tspan> <tspan fill="#39d353">pushed 1 commit(s) to</tspan> <tspan fill="#e3b341">ILIV007/ILIV007</tspan></text></g>
  <g class="logline" style="animation-delay:0.42s"><text x="24" y="104.0" font-family="'Courier New', Courier, monospace" font-size="13"><tspan fill="#8b949e">[11m ago]</tspan> <tspan fill="#39d353">pushed 1 commit(s) to</tspan> <tspan fill="#e3b341">ILIV007/Fredy-admin</tspan></text></g>
  <g class="logline" style="animation-delay:0.54s"><text x="24" y="128.0" font-family="'Courier New', Courier, monospace" font-size="13"><tspan fill="#8b949e">[18m ago]</tspan> <tspan fill="#39d353">pushed 1 commit(s) to</tspan> <tspan fill="#e3b341">ILIV007/ILIV007</tspan></text></g>
  <g class="logline" style="animation-delay:0.66s"><text x="24" y="152.0" font-family="'Courier New', Courier, monospace" font-size="13"><tspan fill="#8b949e">[48m ago]</tspan> <tspan fill="#39d353">pushed 1 commit(s) to</tspan> <tspan fill="#e3b341">ILIV007/Fredy-admin</tspan></text></g>
  <g class="logline" style="animation-delay:0.78s"><text x="24" y="176.0" font-family="'Courier New', Courier, monospace" font-size="13"><tspan fill="#8b949e">[1h ago]</tspan> <tspan fill="#39d353">pushed 1 commit(s) to</tspan> <tspan fill="#e3b341">ILIV007/ILIV007</tspan></text></g>
  <g class="logline" style="animation-delay:0.90s"><text x="24" y="200.0" font-family="'Courier New', Courier, monospace" font-size="13"><tspan fill="#8b949e">[1h ago]</tspan> <tspan fill="#39d353">pushed 1 commit(s) to</tspan> <tspan fill="#e3b341">ILIV007/Fredy-admin</tspan></text></g>
  <line x1="24" y1="234" x2="836" y2="234" stroke="#30363d" stroke-width="1" stroke-dasharray="3 4"/>
  <text x="24" y="258.0" font-family="'Courier New', Courier, monospace" font-size="14" font-weight="700"><tspan fill="#bc8cff">ILIV007@github</tspan><tspan fill="#8b949e"> ~ $ </tspan><tspan fill="#c9d1d9">whoami</tspan></text>
  <g>
    <defs>      <clipPath id="kr0"><rect x="24" y="286.00" width="0" height="15"><animate attributeName="width" from="0" to="375" begin="0.400s" dur="0.28s" fill="freeze" calcMode="spline" keyTimes="0;1" keySplines="0.25 0.1 0.25 1"/></rect></clipPath>
      <clipPath id="kr1"><rect x="24" y="301.00" width="0" height="15"><animate attributeName="width" from="0" to="375" begin="0.440s" dur="0.28s" fill="freeze" calcMode="spline" keyTimes="0;1" keySplines="0.25 0.1 0.25 1"/></rect></clipPath>
      <clipPath id="kr2"><rect x="24" y="316.00" width="0" height="15"><animate attributeName="width" from="0" to="375" begin="0.480s" dur="0.28s" fill="freeze" calcMode="spline" keyTimes="0;1" keySplines="0.25 0.1 0.25 1"/></rect></clipPath>
      <clipPath id="kr3"><rect x="24" y="331.00" width="0" height="15"><animate attributeName="width" from="0" to="375" begin="0.520s" dur="0.28s" fill="freeze" calcMode="spline" keyTimes="0;1" keySplines="0.25 0.1 0.25 1"/></rect></clipPath>
      <clipPath id="kr4"><rect x="24" y="346.00" width="0" height="15"><animate attributeName="width" from="0" to="375" begin="0.560s" dur="0.28s" fill="freeze" calcMode="spline" keyTimes="0;1" keySplines="0.25 0.1 0.25 1"/></rect></clipPath>
      <clipPath id="kr5"><rect x="24" y="361.00" width="0" height="15"><animate attributeName="width" from="0" to="375" begin="0.600s" dur="0.28s" fill="freeze" calcMode="spline" keyTimes="0;1" keySplines="0.25 0.1 0.25 1"/></rect></clipPath>
      <clipPath id="kr6"><rect x="24" y="376.00" width="0" height="15"><animate attributeName="width" from="0" to="375" begin="0.640s" dur="0.28s" fill="freeze" calcMode="spline" keyTimes="0;1" keySplines="0.25 0.1 0.25 1"/></rect></clipPath>
      <clipPath id="kr7"><rect x="24" y="391.00" width="0" height="15"><animate attributeName="width" from="0" to="375" begin="0.680s" dur="0.28s" fill="freeze" calcMode="spline" keyTimes="0;1" keySplines="0.25 0.1 0.25 1"/></rect></clipPath>
      <clipPath id="kr8"><rect x="24" y="406.00" width="0" height="15"><animate attributeName="width" from="0" to="375" begin="0.720s" dur="0.28s" fill="freeze" calcMode="spline" keyTimes="0;1" keySplines="0.25 0.1 0.25 1"/></rect></clipPath>
      <clipPath id="kr9"><rect x="24" y="421.00" width="0" height="15"><animate attributeName="width" from="0" to="375" begin="0.760s" dur="0.28s" fill="freeze" calcMode="spline" keyTimes="0;1" keySplines="0.25 0.1 0.25 1"/></rect></clipPath>
      <clipPath id="kr10"><rect x="24" y="436.00" width="0" height="15"><animate attributeName="width" from="0" to="375" begin="0.800s" dur="0.28s" fill="freeze" calcMode="spline" keyTimes="0;1" keySplines="0.25 0.1 0.25 1"/></rect></clipPath>
      <clipPath id="kr11"><rect x="24" y="451.00" width="0" height="15"><animate attributeName="width" from="0" to="375" begin="0.840s" dur="0.28s" fill="freeze" calcMode="spline" keyTimes="0;1" keySplines="0.25 0.1 0.25 1"/></rect></clipPath>
      <clipPath id="kr12"><rect x="24" y="466.00" width="0" height="15"><animate attributeName="width" from="0" to="375" begin="0.880s" dur="0.28s" fill="freeze" calcMode="spline" keyTimes="0;1" keySplines="0.25 0.1 0.25 1"/></rect></clipPath>
      <clipPath id="kr13"><rect x="24" y="481.00" width="0" height="15"><animate attributeName="width" from="0" to="375" begin="0.920s" dur="0.28s" fill="freeze" calcMode="spline" keyTimes="0;1" keySplines="0.25 0.1 0.25 1"/></rect></clipPath>
      <clipPath id="kr14"><rect x="24" y="496.00" width="0" height="15"><animate attributeName="width" from="0" to="375" begin="0.960s" dur="0.28s" fill="freeze" calcMode="spline" keyTimes="0;1" keySplines="0.25 0.1 0.25 1"/></rect></clipPath>
      <clipPath id="kr15"><rect x="24" y="511.00" width="0" height="15"><animate attributeName="width" from="0" to="375" begin="1.000s" dur="0.28s" fill="freeze" calcMode="spline" keyTimes="0;1" keySplines="0.25 0.1 0.25 1"/></rect></clipPath>
      <clipPath id="kr16"><rect x="24" y="526.00" width="0" height="15"><animate attributeName="width" from="0" to="375" begin="1.040s" dur="0.28s" fill="freeze" calcMode="spline" keyTimes="0;1" keySplines="0.25 0.1 0.25 1"/></rect></clipPath>
      <clipPath id="kr17"><rect x="24" y="541.00" width="0" height="15"><animate attributeName="width" from="0" to="375" begin="1.080s" dur="0.28s" fill="freeze" calcMode="spline" keyTimes="0;1" keySplines="0.25 0.1 0.25 1"/></rect></clipPath>
      <clipPath id="kr18"><rect x="24" y="556.00" width="0" height="15"><animate attributeName="width" from="0" to="375" begin="1.120s" dur="0.28s" fill="freeze" calcMode="spline" keyTimes="0;1" keySplines="0.25 0.1 0.25 1"/></rect></clipPath>
      <clipPath id="kr19"><rect x="24" y="571.00" width="0" height="15"><animate attributeName="width" from="0" to="375" begin="1.160s" dur="0.28s" fill="freeze" calcMode="spline" keyTimes="0;1" keySplines="0.25 0.1 0.25 1"/></rect></clipPath>
      <clipPath id="kr20"><rect x="24" y="586.00" width="0" height="15"><animate attributeName="width" from="0" to="375" begin="1.200s" dur="0.28s" fill="freeze" calcMode="spline" keyTimes="0;1" keySplines="0.25 0.1 0.25 1"/></rect></clipPath>
      <clipPath id="kr21"><rect x="24" y="601.00" width="0" height="15"><animate attributeName="width" from="0" to="375" begin="1.240s" dur="0.28s" fill="freeze" calcMode="spline" keyTimes="0;1" keySplines="0.25 0.1 0.25 1"/></rect></clipPath>
      <clipPath id="kr22"><rect x="24" y="616.00" width="0" height="15"><animate attributeName="width" from="0" to="375" begin="1.280s" dur="0.28s" fill="freeze" calcMode="spline" keyTimes="0;1" keySplines="0.25 0.1 0.25 1"/></rect></clipPath></defs>
        <g clip-path="url(#kr0)"><rect x="144.00" y="286.00" width="13" height="13" rx="2" fill="#2d1b4e"/><rect x="189.00" y="286.00" width="13" height="13" rx="2" fill="#4c1d95"/><rect x="234.00" y="286.00" width="13" height="13" rx="2" fill="#2d1b4e"/></g>
    <g clip-path="url(#kr1)"><rect x="159.00" y="301.00" width="13" height="13" rx="2" fill="#4c1d95"/><rect x="174.00" y="301.00" width="13" height="13" rx="2" fill="#4c1d95"/><rect x="189.00" y="301.00" width="13" height="13" rx="2" fill="#4c1d95"/><rect x="204.00" y="301.00" width="13" height="13" rx="2" fill="#4c1d95"/><rect x="219.00" y="301.00" width="13" height="13" rx="2" fill="#4c1d95"/></g>
    <g clip-path="url(#kr2)"><rect x="174.00" y="316.00" width="13" height="13" rx="2" fill="#2d1b4e"/><rect x="189.00" y="316.00" width="13" height="13" rx="2" fill="#2d1b4e"/><rect x="204.00" y="316.00" width="13" height="13" rx="2" fill="#2d1b4e"/></g>
    <g clip-path="url(#kr3)"><rect x="144.00" y="331.00" width="13" height="13" rx="2" fill="#2d1b4e"/><rect x="159.00" y="331.00" width="13" height="13" rx="2" fill="#5b21b6"/><rect x="174.00" y="331.00" width="13" height="13" rx="2" fill="#4c1d95"/><rect x="189.00" y="331.00" width="13" height="13" rx="2" fill="#4c1d95"/><rect x="204.00" y="331.00" width="13" height="13" rx="2" fill="#4c1d95"/><rect x="219.00" y="331.00" width="13" height="13" rx="2" fill="#5b21b6"/><rect x="234.00" y="331.00" width="13" height="13" rx="2" fill="#2d1b4e"/></g>
    <g clip-path="url(#kr4)"><rect x="129.00" y="346.00" width="13" height="13" rx="2" fill="#2d1b4e"/><rect x="144.00" y="346.00" width="13" height="13" rx="2" fill="#5b21b6"/><rect x="159.00" y="346.00" width="13" height="13" rx="2" fill="#5b21b6"/><rect x="174.00" y="346.00" width="13" height="13" rx="2" fill="#5b21b6"/><rect x="189.00" y="346.00" width="13" height="13" rx="2" fill="#4c1d95"/><rect x="204.00" y="346.00" width="13" height="13" rx="2" fill="#4c1d95"/><rect x="219.00" y="346.00" width="13" height="13" rx="2" fill="#5b21b6"/><rect x="234.00" y="346.00" width="13" height="13" rx="2" fill="#5b21b6"/><rect x="249.00" y="346.00" width="13" height="13" rx="2" fill="#5b21b6"/><rect x="264.00" y="346.00" width="13" height="13" rx="2" fill="#2d1b4e"/></g>
    <g clip-path="url(#kr5)"><rect x="129.00" y="361.00" width="13" height="13" rx="2" fill="#6d28d9"/><rect x="144.00" y="361.00" width="13" height="13" rx="2" fill="#5b21b6"/><rect x="159.00" y="361.00" width="13" height="13" rx="2" fill="#5b21b6"/><rect x="174.00" y="361.00" width="13" height="13" rx="2" fill="#5b21b6"/><rect x="189.00" y="361.00" width="13" height="13" rx="2" fill="#5b21b6"/><rect x="204.00" y="361.00" width="13" height="13" rx="2" fill="#4c1d95"/><rect x="219.00" y="361.00" width="13" height="13" rx="2" fill="#4c1d95"/><rect x="234.00" y="361.00" width="13" height="13" rx="2" fill="#5b21b6"/><rect x="249.00" y="361.00" width="13" height="13" rx="2" fill="#5b21b6"/><rect x="264.00" y="361.00" width="13" height="13" rx="2" fill="#5b21b6"/><rect x="279.00" y="361.00" width="13" height="13" rx="2" fill="#5b21b6"/><rect x="294.00" y="361.00" width="13" height="13" rx="2" fill="#6d28d9"/></g>
    <g clip-path="url(#kr6)"><rect x="129.00" y="376.00" width="13" height="13" rx="2" fill="#6d28d9"/><rect x="144.00" y="376.00" width="13" height="13" rx="2" fill="#a855f7"/><rect x="159.00" y="376.00" width="13" height="13" rx="2" fill="#a855f7"/><rect x="174.00" y="376.00" width="13" height="13" rx="2" fill="#a855f7"/><rect x="189.00" y="376.00" width="13" height="13" rx="2" fill="#a855f7"/><rect x="204.00" y="376.00" width="13" height="13" rx="2" fill="#a855f7"/><rect x="219.00" y="376.00" width="13" height="13" rx="2" fill="#a855f7"/><rect x="234.00" y="376.00" width="13" height="13" rx="2" fill="#a855f7"/><rect x="249.00" y="376.00" width="13" height="13" rx="2" fill="#a855f7"/><rect x="264.00" y="376.00" width="13" height="13" rx="2" fill="#a855f7"/><rect x="279.00" y="376.00" width="13" height="13" rx="2" fill="#a855f7"/><rect x="294.00" y="376.00" width="13" height="13" rx="2" fill="#a855f7"/><rect x="309.00" y="376.00" width="13" height="13" rx="2" fill="#a855f7"/><rect x="324.00" y="376.00" width="13" height="13" rx="2" fill="#a855f7"/><rect x="339.00" y="376.00" width="13" height="13" rx="2" fill="#6d28d9"/></g>
    <g clip-path="url(#kr7)"><rect x="129.00" y="391.00" width="13" height="13" rx="2" fill="#6d28d9"/><rect x="144.00" y="391.00" width="13" height="13" rx="2" fill="#a855f7"/><rect x="159.00" y="391.00" width="13" height="13" rx="2" fill="#a855f7"/><rect x="174.00" y="391.00" width="13" height="13" rx="2" fill="#a855f7"/><rect x="189.00" y="391.00" width="13" height="13" rx="2" fill="#a855f7"/><rect x="204.00" y="391.00" width="13" height="13" rx="2" fill="#a855f7"/><rect x="219.00" y="391.00" width="13" height="13" rx="2" fill="#a855f7"/><rect x="234.00" y="391.00" width="13" height="13" rx="2" fill="#e3b341"/><rect x="249.00" y="391.00" width="13" height="13" rx="2" fill="#a855f7"/><rect x="264.00" y="391.00" width="13" height="13" rx="2" fill="#a855f7"/><rect x="279.00" y="391.00" width="13" height="13" rx="2" fill="#a855f7"/><rect x="294.00" y="391.00" width="13" height="13" rx="2" fill="#a855f7"/><rect x="309.00" y="391.00" width="13" height="13" rx="2" fill="#a855f7"/><rect x="324.00" y="391.00" width="13" height="13" rx="2" fill="#a855f7"/><rect x="339.00" y="391.00" width="13" height="13" rx="2" fill="#6d28d9"/></g>
    <g clip-path="url(#kr8)"><rect x="129.00" y="406.00" width="13" height="13" rx="2" fill="#6d28d9"/><rect x="144.00" y="406.00" width="13" height="13" rx="2" fill="#a855f7"/><rect x="159.00" y="406.00" width="13" height="13" rx="2" fill="#a855f7"/><rect x="174.00" y="406.00" width="13" height="13" rx="2" fill="#a855f7"/><rect x="189.00" y="406.00" width="13" height="13" rx="2" fill="#a855f7"/><rect x="204.00" y="406.00" width="13" height="13" rx="2" fill="#a855f7"/><rect x="219.00" y="406.00" width="13" height="13" rx="2" fill="#a855f7"/><rect x="234.00" y="406.00" width="13" height="13" rx="2" fill="#e3b341"/><rect x="249.00" y="406.00" width="13" height="13" rx="2" fill="#a855f7"/><rect x="264.00" y="406.00" width="13" height="13" rx="2" fill="#a855f7"/><rect x="279.00" y="406.00" width="13" height="13" rx="2" fill="#a855f7"/><rect x="294.00" y="406.00" width="13" height="13" rx="2" fill="#a855f7"/><rect x="309.00" y="406.00" width="13" height="13" rx="2" fill="#a855f7"/><rect x="324.00" y="406.00" width="13" height="13" rx="2" fill="#a855f7"/><rect x="339.00" y="406.00" width="13" height="13" rx="2" fill="#6d28d9"/></g>
    <g clip-path="url(#kr9)"><rect x="129.00" y="421.00" width="13" height="13" rx="2" fill="#6d28d9"/><rect x="144.00" y="421.00" width="13" height="13" rx="2" fill="#a855f7"/><rect x="159.00" y="421.00" width="13" height="13" rx="2" fill="#a855f7"/><rect x="174.00" y="421.00" width="13" height="13" rx="2" fill="#a855f7"/><rect x="189.00" y="421.00" width="13" height="13" rx="2" fill="#a855f7"/><rect x="204.00" y="421.00" width="13" height="13" rx="2" fill="#a855f7"/><rect x="219.00" y="421.00" width="13" height="13" rx="2" fill="#a855f7"/><rect x="234.00" y="421.00" width="13" height="13" rx="2" fill="#a855f7"/><rect x="249.00" y="421.00" width="13" height="13" rx="2" fill="#a855f7"/><rect x="264.00" y="421.00" width="13" height="13" rx="2" fill="#a855f7"/><rect x="279.00" y="421.00" width="13" height="13" rx="2" fill="#a855f7"/><rect x="294.00" y="421.00" width="13" height="13" rx="2" fill="#a855f7"/><rect x="309.00" y="421.00" width="13" height="13" rx="2" fill="#a855f7"/><rect x="324.00" y="421.00" width="13" height="13" rx="2" fill="#a855f7"/><rect x="339.00" y="421.00" width="13" height="13" rx="2" fill="#6d28d9"/></g>
    <g clip-path="url(#kr10)"><rect x="129.00" y="436.00" width="13" height="13" rx="2" fill="#6d28d9"/><rect x="144.00" y="436.00" width="13" height="13" rx="2" fill="#a855f7"/><rect x="159.00" y="436.00" width="13" height="13" rx="2" fill="#a855f7"/><rect x="174.00" y="436.00" width="13" height="13" rx="2" fill="#a855f7"/><rect x="189.00" y="436.00" width="13" height="13" rx="2" fill="#a855f7"/><rect x="204.00" y="436.00" width="13" height="13" rx="2" fill="#a855f7"/><rect x="219.00" y="436.00" width="13" height="13" rx="2" fill="#a855f7"/><rect x="234.00" y="436.00" width="13" height="13" rx="2" fill="#a855f7"/><rect x="249.00" y="436.00" width="13" height="13" rx="2" fill="#a855f7"/><rect x="264.00" y="436.00" width="13" height="13" rx="2" fill="#a855f7"/><rect x="279.00" y="436.00" width="13" height="13" rx="2" fill="#a855f7"/><rect x="294.00" y="436.00" width="13" height="13" rx="2" fill="#a855f7"/><rect x="309.00" y="436.00" width="13" height="13" rx="2" fill="#a855f7"/><rect x="324.00" y="436.00" width="13" height="13" rx="2" fill="#a855f7"/><rect x="339.00" y="436.00" width="13" height="13" rx="2" fill="#6d28d9"/></g>
    <g clip-path="url(#kr11)"><rect x="129.00" y="451.00" width="13" height="13" rx="2" fill="#6d28d9"/><rect x="144.00" y="451.00" width="13" height="13" rx="2" fill="#a855f7"/><rect x="159.00" y="451.00" width="13" height="13" rx="2" fill="#a855f7"/><rect x="174.00" y="451.00" width="13" height="13" rx="2" fill="#a855f7"/><rect x="189.00" y="451.00" width="13" height="13" rx="2" fill="#a855f7"/><rect x="204.00" y="451.00" width="13" height="13" rx="2" fill="#a855f7"/><rect x="219.00" y="451.00" width="13" height="13" rx="2" fill="#a855f7"/><rect x="234.00" y="451.00" width="13" height="13" rx="2" fill="#a855f7"/><rect x="249.00" y="451.00" width="13" height="13" rx="2" fill="#a855f7"/><rect x="264.00" y="451.00" width="13" height="13" rx="2" fill="#a855f7"/><rect x="279.00" y="451.00" width="13" height="13" rx="2" fill="#a855f7"/><rect x="294.00" y="451.00" width="13" height="13" rx="2" fill="#a855f7"/><rect x="309.00" y="451.00" width="13" height="13" rx="2" fill="#a855f7"/><rect x="324.00" y="451.00" width="13" height="13" rx="2" fill="#a855f7"/><rect x="339.00" y="451.00" width="13" height="13" rx="2" fill="#6d28d9"/></g>
    <g clip-path="url(#kr12)"><rect x="129.00" y="466.00" width="13" height="13" rx="2" fill="#6d28d9"/><rect x="144.00" y="466.00" width="13" height="13" rx="2" fill="#a855f7"/><rect x="159.00" y="466.00" width="13" height="13" rx="2" fill="#a855f7"/><rect x="174.00" y="466.00" width="13" height="13" rx="2" fill="#a855f7"/><rect x="189.00" y="466.00" width="13" height="13" rx="2" fill="#a855f7"/><rect x="204.00" y="466.00" width="13" height="13" rx="2" fill="#a855f7"/><rect x="219.00" y="466.00" width="13" height="13" rx="2" fill="#a855f7"/><rect x="234.00" y="466.00" width="13" height="13" rx="2" fill="#a855f7"/><rect x="249.00" y="466.00" width="13" height="13" rx="2" fill="#a855f7"/><rect x="264.00" y="466.00" width="13" height="13" rx="2" fill="#a855f7"/><rect x="279.00" y="466.00" width="13" height="13" rx="2" fill="#a855f7"/><rect x="294.00" y="466.00" width="13" height="13" rx="2" fill="#a855f7"/><rect x="309.00" y="466.00" width="13" height="13" rx="2" fill="#a855f7"/><rect x="324.00" y="466.00" width="13" height="13" rx="2" fill="#a855f7"/><rect x="339.00" y="466.00" width="13" height="13" rx="2" fill="#6d28d9"/></g>
    <g clip-path="url(#kr13)"><rect x="129.00" y="481.00" width="13" height="13" rx="2" fill="#6d28d9"/><rect x="144.00" y="481.00" width="13" height="13" rx="2" fill="#c4b5fd"/><rect x="159.00" y="481.00" width="13" height="13" rx="2" fill="#c4b5fd"/><rect x="174.00" y="481.00" width="13" height="13" rx="2" fill="#c4b5fd"/><rect x="189.00" y="481.00" width="13" height="13" rx="2" fill="#c4b5fd"/><rect x="204.00" y="481.00" width="13" height="13" rx="2" fill="#c4b5fd"/><rect x="219.00" y="481.00" width="13" height="13" rx="2" fill="#c4b5fd"/><rect x="234.00" y="481.00" width="13" height="13" rx="2" fill="#c4b5fd"/><rect x="249.00" y="481.00" width="13" height="13" rx="2" fill="#c4b5fd"/><rect x="264.00" y="481.00" width="13" height="13" rx="2" fill="#c4b5fd"/><rect x="279.00" y="481.00" width="13" height="13" rx="2" fill="#c4b5fd"/><rect x="294.00" y="481.00" width="13" height="13" rx="2" fill="#c4b5fd"/><rect x="309.00" y="481.00" width="13" height="13" rx="2" fill="#c4b5fd"/><rect x="324.00" y="481.00" width="13" height="13" rx="2" fill="#c4b5fd"/><rect x="339.00" y="481.00" width="13" height="13" rx="2" fill="#6d28d9"/></g>
    <g clip-path="url(#kr14)"><rect x="129.00" y="496.00" width="13" height="13" rx="2" fill="#6d28d9"/><rect x="144.00" y="496.00" width="13" height="13" rx="2" fill="#c4b5fd"/><rect x="159.00" y="496.00" width="13" height="13" rx="2" fill="#c4b5fd"/><rect x="174.00" y="496.00" width="13" height="13" rx="2" fill="#c4b5fd"/><rect x="189.00" y="496.00" width="13" height="13" rx="2" fill="#c4b5fd"/><rect x="204.00" y="496.00" width="13" height="13" rx="2" fill="#c4b5fd"/><rect x="219.00" y="496.00" width="13" height="13" rx="2" fill="#c4b5fd"/><rect x="234.00" y="496.00" width="13" height="13" rx="2" fill="#c4b5fd"/><rect x="249.00" y="496.00" width="13" height="13" rx="2" fill="#c4b5fd"/><rect x="264.00" y="496.00" width="13" height="13" rx="2" fill="#c4b5fd"/><rect x="279.00" y="496.00" width="13" height="13" rx="2" fill="#c4b5fd"/><rect x="294.00" y="496.00" width="13" height="13" rx="2" fill="#c4b5fd"/><rect x="309.00" y="496.00" width="13" height="13" rx="2" fill="#c4b5fd"/><rect x="324.00" y="496.00" width="13" height="13" rx="2" fill="#c4b5fd"/><rect x="339.00" y="496.00" width="13" height="13" rx="2" fill="#6d28d9"/></g>
    <g clip-path="url(#kr15)"><rect x="129.00" y="511.00" width="13" height="13" rx="2" fill="#6d28d9"/><rect x="144.00" y="511.00" width="13" height="13" rx="2" fill="#a855f7"/><rect x="159.00" y="511.00" width="13" height="13" rx="2" fill="#a855f7"/><rect x="174.00" y="511.00" width="13" height="13" rx="2" fill="#a855f7"/><rect x="189.00" y="511.00" width="13" height="13" rx="2" fill="#a855f7"/><rect x="204.00" y="511.00" width="13" height="13" rx="2" fill="#a855f7"/><rect x="219.00" y="511.00" width="13" height="13" rx="2" fill="#a855f7"/><rect x="234.00" y="511.00" width="13" height="13" rx="2" fill="#a855f7"/><rect x="249.00" y="511.00" width="13" height="13" rx="2" fill="#a855f7"/><rect x="264.00" y="511.00" width="13" height="13" rx="2" fill="#a855f7"/><rect x="279.00" y="511.00" width="13" height="13" rx="2" fill="#a855f7"/><rect x="294.00" y="511.00" width="13" height="13" rx="2" fill="#a855f7"/><rect x="309.00" y="511.00" width="13" height="13" rx="2" fill="#a855f7"/><rect x="324.00" y="511.00" width="13" height="13" rx="2" fill="#a855f7"/><rect x="339.00" y="511.00" width="13" height="13" rx="2" fill="#6d28d9"/></g>
    <g clip-path="url(#kr16)"><rect x="129.00" y="526.00" width="13" height="13" rx="2" fill="#6d28d9"/><rect x="144.00" y="526.00" width="13" height="13" rx="2" fill="#a855f7"/><rect x="159.00" y="526.00" width="13" height="13" rx="2" fill="#a855f7"/><rect x="174.00" y="526.00" width="13" height="13" rx="2" fill="#4c1d95"/><rect x="189.00" y="526.00" width="13" height="13" rx="2" fill="#a855f7"/><rect x="204.00" y="526.00" width="13" height="13" rx="2" fill="#a855f7"/><rect x="219.00" y="526.00" width="13" height="13" rx="2" fill="#4c1d95"/><rect x="234.00" y="526.00" width="13" height="13" rx="2" fill="#a855f7"/><rect x="249.00" y="526.00" width="13" height="13" rx="2" fill="#a855f7"/><rect x="264.00" y="526.00" width="13" height="13" rx="2" fill="#4c1d95"/><rect x="279.00" y="526.00" width="13" height="13" rx="2" fill="#a855f7"/><rect x="294.00" y="526.00" width="13" height="13" rx="2" fill="#a855f7"/><rect x="309.00" y="526.00" width="13" height="13" rx="2" fill="#4c1d95"/><rect x="324.00" y="526.00" width="13" height="13" rx="2" fill="#a855f7"/><rect x="339.00" y="526.00" width="13" height="13" rx="2" fill="#6d28d9"/></g>
    <g clip-path="url(#kr17)"><rect x="129.00" y="541.00" width="13" height="13" rx="2" fill="#6d28d9"/><rect x="144.00" y="541.00" width="13" height="13" rx="2" fill="#a855f7"/><rect x="159.00" y="541.00" width="13" height="13" rx="2" fill="#a855f7"/><rect x="174.00" y="541.00" width="13" height="13" rx="2" fill="#a855f7"/><rect x="189.00" y="541.00" width="13" height="13" rx="2" fill="#a855f7"/><rect x="204.00" y="541.00" width="13" height="13" rx="2" fill="#a855f7"/><rect x="219.00" y="541.00" width="13" height="13" rx="2" fill="#a855f7"/><rect x="234.00" y="541.00" width="13" height="13" rx="2" fill="#a855f7"/><rect x="249.00" y="541.00" width="13" height="13" rx="2" fill="#a855f7"/><rect x="264.00" y="541.00" width="13" height="13" rx="2" fill="#a855f7"/><rect x="279.00" y="541.00" width="13" height="13" rx="2" fill="#a855f7"/><rect x="294.00" y="541.00" width="13" height="13" rx="2" fill="#a855f7"/><rect x="309.00" y="541.00" width="13" height="13" rx="2" fill="#a855f7"/><rect x="324.00" y="541.00" width="13" height="13" rx="2" fill="#a855f7"/><rect x="339.00" y="541.00" width="13" height="13" rx="2" fill="#6d28d9"/></g>
    <g clip-path="url(#kr18)"><rect x="144.00" y="556.00" width="13" height="13" rx="2" fill="#6d28d9"/><rect x="159.00" y="556.00" width="13" height="13" rx="2" fill="#a855f7"/><rect x="174.00" y="556.00" width="13" height="13" rx="2" fill="#a855f7"/><rect x="189.00" y="556.00" width="13" height="13" rx="2" fill="#a855f7"/><rect x="204.00" y="556.00" width="13" height="13" rx="2" fill="#a855f7"/><rect x="219.00" y="556.00" width="13" height="13" rx="2" fill="#a855f7"/><rect x="234.00" y="556.00" width="13" height="13" rx="2" fill="#a855f7"/><rect x="249.00" y="556.00" width="13" height="13" rx="2" fill="#a855f7"/><rect x="264.00" y="556.00" width="13" height="13" rx="2" fill="#a855f7"/><rect x="279.00" y="556.00" width="13" height="13" rx="2" fill="#a855f7"/><rect x="294.00" y="556.00" width="13" height="13" rx="2" fill="#a855f7"/><rect x="309.00" y="556.00" width="13" height="13" rx="2" fill="#a855f7"/><rect x="324.00" y="556.00" width="13" height="13" rx="2" fill="#6d28d9"/></g>
    <g clip-path="url(#kr19)"><rect x="84.00" y="571.00" width="13" height="13" rx="2" fill="#2d1b4e"/><rect x="99.00" y="571.00" width="13" height="13" rx="2" fill="#5b21b6"/><rect x="114.00" y="571.00" width="13" height="13" rx="2" fill="#5b21b6"/><rect x="129.00" y="571.00" width="13" height="13" rx="2" fill="#5b21b6"/><rect x="144.00" y="571.00" width="13" height="13" rx="2" fill="#a855f7"/><rect x="159.00" y="571.00" width="13" height="13" rx="2" fill="#a855f7"/><rect x="174.00" y="571.00" width="13" height="13" rx="2" fill="#a855f7"/><rect x="189.00" y="571.00" width="13" height="13" rx="2" fill="#a855f7"/><rect x="204.00" y="571.00" width="13" height="13" rx="2" fill="#a855f7"/><rect x="219.00" y="571.00" width="13" height="13" rx="2" fill="#a855f7"/><rect x="234.00" y="571.00" width="13" height="13" rx="2" fill="#a855f7"/><rect x="249.00" y="571.00" width="13" height="13" rx="2" fill="#a855f7"/><rect x="264.00" y="571.00" width="13" height="13" rx="2" fill="#a855f7"/><rect x="279.00" y="571.00" width="13" height="13" rx="2" fill="#a855f7"/><rect x="294.00" y="571.00" width="13" height="13" rx="2" fill="#a855f7"/><rect x="309.00" y="571.00" width="13" height="13" rx="2" fill="#5b21b6"/><rect x="324.00" y="571.00" width="13" height="13" rx="2" fill="#5b21b6"/><rect x="339.00" y="571.00" width="13" height="13" rx="2" fill="#5b21b6"/><rect x="354.00" y="571.00" width="13" height="13" rx="2" fill="#2d1b4e"/></g>
    <g clip-path="url(#kr20)"><rect x="84.00" y="586.00" width="13" height="13" rx="2" fill="#6d28d9"/><rect x="99.00" y="586.00" width="13" height="13" rx="2" fill="#a855f7"/><rect x="114.00" y="586.00" width="13" height="13" rx="2" fill="#a855f7"/><rect x="129.00" y="586.00" width="13" height="13" rx="2" fill="#a855f7"/><rect x="144.00" y="586.00" width="13" height="13" rx="2" fill="#a855f7"/><rect x="159.00" y="586.00" width="13" height="13" rx="2" fill="#a855f7"/><rect x="174.00" y="586.00" width="13" height="13" rx="2" fill="#a855f7"/><rect x="189.00" y="586.00" width="13" height="13" rx="2" fill="#a855f7"/><rect x="204.00" y="586.00" width="13" height="13" rx="2" fill="#a855f7"/><rect x="219.00" y="586.00" width="13" height="13" rx="2" fill="#a855f7"/><rect x="234.00" y="586.00" width="13" height="13" rx="2" fill="#a855f7"/><rect x="249.00" y="586.00" width="13" height="13" rx="2" fill="#a855f7"/><rect x="264.00" y="586.00" width="13" height="13" rx="2" fill="#a855f7"/><rect x="279.00" y="586.00" width="13" height="13" rx="2" fill="#a855f7"/><rect x="294.00" y="586.00" width="13" height="13" rx="2" fill="#a855f7"/><rect x="309.00" y="586.00" width="13" height="13" rx="2" fill="#a855f7"/><rect x="324.00" y="586.00" width="13" height="13" rx="2" fill="#a855f7"/><rect x="339.00" y="586.00" width="13" height="13" rx="2" fill="#a855f7"/><rect x="354.00" y="586.00" width="13" height="13" rx="2" fill="#6d28d9"/></g>
    <g clip-path="url(#kr21)"><rect x="84.00" y="601.00" width="13" height="13" rx="2" fill="#6d28d9"/><rect x="99.00" y="601.00" width="13" height="13" rx="2" fill="#a855f7"/><rect x="114.00" y="601.00" width="13" height="13" rx="2" fill="#a855f7"/><rect x="129.00" y="601.00" width="13" height="13" rx="2" fill="#a855f7"/><rect x="144.00" y="601.00" width="13" height="13" rx="2" fill="#a855f7"/><rect x="159.00" y="601.00" width="13" height="13" rx="2" fill="#a855f7"/><rect x="174.00" y="601.00" width="13" height="13" rx="2" fill="#a855f7"/><rect x="189.00" y="601.00" width="13" height="13" rx="2" fill="#a855f7"/><rect x="204.00" y="601.00" width="13" height="13" rx="2" fill="#a855f7"/><rect x="219.00" y="601.00" width="13" height="13" rx="2" fill="#a855f7"/><rect x="234.00" y="601.00" width="13" height="13" rx="2" fill="#a855f7"/><rect x="249.00" y="601.00" width="13" height="13" rx="2" fill="#a855f7"/><rect x="264.00" y="601.00" width="13" height="13" rx="2" fill="#a855f7"/><rect x="279.00" y="601.00" width="13" height="13" rx="2" fill="#a855f7"/><rect x="294.00" y="601.00" width="13" height="13" rx="2" fill="#a855f7"/><rect x="309.00" y="601.00" width="13" height="13" rx="2" fill="#a855f7"/><rect x="324.00" y="601.00" width="13" height="13" rx="2" fill="#a855f7"/><rect x="339.00" y="601.00" width="13" height="13" rx="2" fill="#a855f7"/><rect x="354.00" y="601.00" width="13" height="13" rx="2" fill="#6d28d9"/></g>
    <g clip-path="url(#kr22)"><rect x="99.00" y="616.00" width="13" height="13" rx="2" fill="#6d28d9"/><rect x="114.00" y="616.00" width="13" height="13" rx="2" fill="#a855f7"/><rect x="129.00" y="616.00" width="13" height="13" rx="2" fill="#a855f7"/><rect x="144.00" y="616.00" width="13" height="13" rx="2" fill="#a855f7"/><rect x="159.00" y="616.00" width="13" height="13" rx="2" fill="#a855f7"/><rect x="174.00" y="616.00" width="13" height="13" rx="2" fill="#a855f7"/><rect x="189.00" y="616.00" width="13" height="13" rx="2" fill="#a855f7"/><rect x="204.00" y="616.00" width="13" height="13" rx="2" fill="#a855f7"/><rect x="219.00" y="616.00" width="13" height="13" rx="2" fill="#a855f7"/><rect x="234.00" y="616.00" width="13" height="13" rx="2" fill="#a855f7"/><rect x="249.00" y="616.00" width="13" height="13" rx="2" fill="#a855f7"/><rect x="264.00" y="616.00" width="13" height="13" rx="2" fill="#a855f7"/><rect x="279.00" y="616.00" width="13" height="13" rx="2" fill="#a855f7"/><rect x="294.00" y="616.00" width="13" height="13" rx="2" fill="#a855f7"/><rect x="309.00" y="616.00" width="13" height="13" rx="2" fill="#a855f7"/><rect x="324.00" y="616.00" width="13" height="13" rx="2" fill="#a855f7"/><rect x="339.00" y="616.00" width="13" height="13" rx="2" fill="#6d28d9"/></g>
        <rect x="24" y="287.00" width="4" height="13" fill="#e3b341" opacity="0"><animate attributeName="x" from="24" to="396" begin="0.400s" dur="0.28s" fill="freeze" calcMode="spline" keyTimes="0;1" keySplines="0.25 0.1 0.25 1"/><animate attributeName="opacity" values="0;1;1;0" keyTimes="0;0.12;0.82;1" begin="0.400s" dur="0.28s" fill="freeze"/></rect>
    <rect x="24" y="302.00" width="4" height="13" fill="#e3b341" opacity="0"><animate attributeName="x" from="24" to="396" begin="0.440s" dur="0.28s" fill="freeze" calcMode="spline" keyTimes="0;1" keySplines="0.25 0.1 0.25 1"/><animate attributeName="opacity" values="0;1;1;0" keyTimes="0;0.12;0.82;1" begin="0.440s" dur="0.28s" fill="freeze"/></rect>
    <rect x="24" y="317.00" width="4" height="13" fill="#e3b341" opacity="0"><animate attributeName="x" from="24" to="396" begin="0.480s" dur="0.28s" fill="freeze" calcMode="spline" keyTimes="0;1" keySplines="0.25 0.1 0.25 1"/><animate attributeName="opacity" values="0;1;1;0" keyTimes="0;0.12;0.82;1" begin="0.480s" dur="0.28s" fill="freeze"/></rect>
    <rect x="24" y="332.00" width="4" height="13" fill="#e3b341" opacity="0"><animate attributeName="x" from="24" to="396" begin="0.520s" dur="0.28s" fill="freeze" calcMode="spline" keyTimes="0;1" keySplines="0.25 0.1 0.25 1"/><animate attributeName="opacity" values="0;1;1;0" keyTimes="0;0.12;0.82;1" begin="0.520s" dur="0.28s" fill="freeze"/></rect>
    <rect x="24" y="347.00" width="4" height="13" fill="#e3b341" opacity="0"><animate attributeName="x" from="24" to="396" begin="0.560s" dur="0.28s" fill="freeze" calcMode="spline" keyTimes="0;1" keySplines="0.25 0.1 0.25 1"/><animate attributeName="opacity" values="0;1;1;0" keyTimes="0;0.12;0.82;1" begin="0.560s" dur="0.28s" fill="freeze"/></rect>
    <rect x="24" y="362.00" width="4" height="13" fill="#e3b341" opacity="0"><animate attributeName="x" from="24" to="396" begin="0.600s" dur="0.28s" fill="freeze" calcMode="spline" keyTimes="0;1" keySplines="0.25 0.1 0.25 1"/><animate attributeName="opacity" values="0;1;1;0" keyTimes="0;0.12;0.82;1" begin="0.600s" dur="0.28s" fill="freeze"/></rect>
    <rect x="24" y="377.00" width="4" height="13" fill="#e3b341" opacity="0"><animate attributeName="x" from="24" to="396" begin="0.640s" dur="0.28s" fill="freeze" calcMode="spline" keyTimes="0;1" keySplines="0.25 0.1 0.25 1"/><animate attributeName="opacity" values="0;1;1;0" keyTimes="0;0.12;0.82;1" begin="0.640s" dur="0.28s" fill="freeze"/></rect>
    <rect x="24" y="392.00" width="4" height="13" fill="#e3b341" opacity="0"><animate attributeName="x" from="24" to="396" begin="0.680s" dur="0.28s" fill="freeze" calcMode="spline" keyTimes="0;1" keySplines="0.25 0.1 0.25 1"/><animate attributeName="opacity" values="0;1;1;0" keyTimes="0;0.12;0.82;1" begin="0.680s" dur="0.28s" fill="freeze"/></rect>
    <rect x="24" y="407.00" width="4" height="13" fill="#e3b341" opacity="0"><animate attributeName="x" from="24" to="396" begin="0.720s" dur="0.28s" fill="freeze" calcMode="spline" keyTimes="0;1" keySplines="0.25 0.1 0.25 1"/><animate attributeName="opacity" values="0;1;1;0" keyTimes="0;0.12;0.82;1" begin="0.720s" dur="0.28s" fill="freeze"/></rect>
    <rect x="24" y="422.00" width="4" height="13" fill="#e3b341" opacity="0"><animate attributeName="x" from="24" to="396" begin="0.760s" dur="0.28s" fill="freeze" calcMode="spline" keyTimes="0;1" keySplines="0.25 0.1 0.25 1"/><animate attributeName="opacity" values="0;1;1;0" keyTimes="0;0.12;0.82;1" begin="0.760s" dur="0.28s" fill="freeze"/></rect>
    <rect x="24" y="437.00" width="4" height="13" fill="#e3b341" opacity="0"><animate attributeName="x" from="24" to="396" begin="0.800s" dur="0.28s" fill="freeze" calcMode="spline" keyTimes="0;1" keySplines="0.25 0.1 0.25 1"/><animate attributeName="opacity" values="0;1;1;0" keyTimes="0;0.12;0.82;1" begin="0.800s" dur="0.28s" fill="freeze"/></rect>
    <rect x="24" y="452.00" width="4" height="13" fill="#e3b341" opacity="0"><animate attributeName="x" from="24" to="396" begin="0.840s" dur="0.28s" fill="freeze" calcMode="spline" keyTimes="0;1" keySplines="0.25 0.1 0.25 1"/><animate attributeName="opacity" values="0;1;1;0" keyTimes="0;0.12;0.82;1" begin="0.840s" dur="0.28s" fill="freeze"/></rect>
    <rect x="24" y="467.00" width="4" height="13" fill="#e3b341" opacity="0"><animate attributeName="x" from="24" to="396" begin="0.880s" dur="0.28s" fill="freeze" calcMode="spline" keyTimes="0;1" keySplines="0.25 0.1 0.25 1"/><animate attributeName="opacity" values="0;1;1;0" keyTimes="0;0.12;0.82;1" begin="0.880s" dur="0.28s" fill="freeze"/></rect>
    <rect x="24" y="482.00" width="4" height="13" fill="#e3b341" opacity="0"><animate attributeName="x" from="24" to="396" begin="0.920s" dur="0.28s" fill="freeze" calcMode="spline" keyTimes="0;1" keySplines="0.25 0.1 0.25 1"/><animate attributeName="opacity" values="0;1;1;0" keyTimes="0;0.12;0.82;1" begin="0.920s" dur="0.28s" fill="freeze"/></rect>
    <rect x="24" y="497.00" width="4" height="13" fill="#e3b341" opacity="0"><animate attributeName="x" from="24" to="396" begin="0.960s" dur="0.28s" fill="freeze" calcMode="spline" keyTimes="0;1" keySplines="0.25 0.1 0.25 1"/><animate attributeName="opacity" values="0;1;1;0" keyTimes="0;0.12;0.82;1" begin="0.960s" dur="0.28s" fill="freeze"/></rect>
    <rect x="24" y="512.00" width="4" height="13" fill="#e3b341" opacity="0"><animate attributeName="x" from="24" to="396" begin="1.000s" dur="0.28s" fill="freeze" calcMode="spline" keyTimes="0;1" keySplines="0.25 0.1 0.25 1"/><animate attributeName="opacity" values="0;1;1;0" keyTimes="0;0.12;0.82;1" begin="1.000s" dur="0.28s" fill="freeze"/></rect>
    <rect x="24" y="527.00" width="4" height="13" fill="#e3b341" opacity="0"><animate attributeName="x" from="24" to="396" begin="1.040s" dur="0.28s" fill="freeze" calcMode="spline" keyTimes="0;1" keySplines="0.25 0.1 0.25 1"/><animate attributeName="opacity" values="0;1;1;0" keyTimes="0;0.12;0.82;1" begin="1.040s" dur="0.28s" fill="freeze"/></rect>
    <rect x="24" y="542.00" width="4" height="13" fill="#e3b341" opacity="0"><animate attributeName="x" from="24" to="396" begin="1.080s" dur="0.28s" fill="freeze" calcMode="spline" keyTimes="0;1" keySplines="0.25 0.1 0.25 1"/><animate attributeName="opacity" values="0;1;1;0" keyTimes="0;0.12;0.82;1" begin="1.080s" dur="0.28s" fill="freeze"/></rect>
    <rect x="24" y="557.00" width="4" height="13" fill="#e3b341" opacity="0"><animate attributeName="x" from="24" to="396" begin="1.120s" dur="0.28s" fill="freeze" calcMode="spline" keyTimes="0;1" keySplines="0.25 0.1 0.25 1"/><animate attributeName="opacity" values="0;1;1;0" keyTimes="0;0.12;0.82;1" begin="1.120s" dur="0.28s" fill="freeze"/></rect>
    <rect x="24" y="572.00" width="4" height="13" fill="#e3b341" opacity="0"><animate attributeName="x" from="24" to="396" begin="1.160s" dur="0.28s" fill="freeze" calcMode="spline" keyTimes="0;1" keySplines="0.25 0.1 0.25 1"/><animate attributeName="opacity" values="0;1;1;0" keyTimes="0;0.12;0.82;1" begin="1.160s" dur="0.28s" fill="freeze"/></rect>
    <rect x="24" y="587.00" width="4" height="13" fill="#e3b341" opacity="0"><animate attributeName="x" from="24" to="396" begin="1.200s" dur="0.28s" fill="freeze" calcMode="spline" keyTimes="0;1" keySplines="0.25 0.1 0.25 1"/><animate attributeName="opacity" values="0;1;1;0" keyTimes="0;0.12;0.82;1" begin="1.200s" dur="0.28s" fill="freeze"/></rect>
    <rect x="24" y="602.00" width="4" height="13" fill="#e3b341" opacity="0"><animate attributeName="x" from="24" to="396" begin="1.240s" dur="0.28s" fill="freeze" calcMode="spline" keyTimes="0;1" keySplines="0.25 0.1 0.25 1"/><animate attributeName="opacity" values="0;1;1;0" keyTimes="0;0.12;0.82;1" begin="1.240s" dur="0.28s" fill="freeze"/></rect>
    <rect x="24" y="617.00" width="4" height="13" fill="#e3b341" opacity="0"><animate attributeName="x" from="24" to="396" begin="1.280s" dur="0.28s" fill="freeze" calcMode="spline" keyTimes="0;1" keySplines="0.25 0.1 0.25 1"/><animate attributeName="opacity" values="0;1;1;0" keyTimes="0;0.12;0.82;1" begin="1.280s" dur="0.28s" fill="freeze"/></rect>
  </g>
    <g class="cardline" style="animation-delay:0.50s"><text x="435" y="292.0" font-family="'Courier New', Courier, monospace" font-size="13" font-weight="600"><tspan fill="#e3b341">◆</tspan>  <tspan fill="#c9d1d9" font-weight="700" font-size="16">ILIYA</tspan></text></g>
  <g class="cardline" style="animation-delay:0.60s"><text x="435" y="316.0" font-family="'Courier New', Courier, monospace" font-size="13" font-weight="600"><tspan fill="#e3b341">class   </tspan><tspan fill="#d2a8ff">developer</tspan></text></g>
  <g class="cardline" style="animation-delay:0.70s"><text x="435" y="340.0" font-family="'Courier New', Courier, monospace" font-size="13" font-weight="600"><tspan fill="#e3b341">level   </tspan><tspan fill="#d2a8ff">?? · quest just begun</tspan></text></g>
  <g class="cardline" style="animation-delay:0.80s"><text x="435" y="364.0" font-family="'Courier New', Courier, monospace" font-size="13" font-weight="600"><tspan fill="#e3b341">stack   </tspan><tspan fill="#d2a8ff">learning · building</tspan></text></g>
  <g class="cardline" style="animation-delay:0.90s"><text x="435" y="388.0" font-family="'Courier New', Courier, monospace" font-size="13" font-weight="600"><tspan fill="#e3b341">channel </tspan><tspan fill="#d2a8ff">ILIVIR3</tspan></text></g>
  <g class="cardline" style="animation-delay:1.00s"><text x="435" y="412.0" font-family="'Courier New', Courier, monospace" font-size="13" font-weight="600"><tspan fill="#8b949e" font-style="italic">  "start small, stay curious"</tspan></text></g>
  <g class="cardline" style="animation-delay:1.10s"><text x="435" y="436.0" font-family="'Courier New', Courier, monospace" font-size="13" font-weight="600"><tspan fill="#e3b341">guild   </tspan><tspan fill="#d2a8ff">github.com/ILIV007</tspan></text></g>
  <title>ILIV007 — GitHub profile</title>
</svg>